<?xml version="1.0" encoding="UTF-8" standalone="no"?>
<!-- Created using Karbon14, part of koffice: http://www.koffice.org/karbon -->

<svg
   xmlns:dc="http://purl.org/dc/elements/1.1/"
   xmlns:cc="http://creativecommons.org/ns#"
   xmlns:rdf="http://www.w3.org/1999/02/22-rdf-syntax-ns#"
   xmlns:svg="http://www.w3.org/2000/svg"
   xmlns="http://www.w3.org/2000/svg"
   xmlns:xlink="http://www.w3.org/1999/xlink"
   xmlns:sodipodi="http://sodipodi.sourceforge.net/DTD/sodipodi-0.dtd"
   xmlns:inkscape="http://www.inkscape.org/namespaces/inkscape"
   width="276.95pt"
   height="460.025pt"
   id="svg2"
   version="1.1"
   inkscape:version="0.48.2 r9819"
   sodipodi:docname="munadi.svg">
  <metadata
     id="metadata32">
    <rdf:RDF>
      <cc:Work
         rdf:about="">
        <dc:format>image/svg+xml</dc:format>
        <dc:type
           rdf:resource="http://purl.org/dc/dcmitype/StillImage" />
        <dc:title></dc:title>
      </cc:Work>
    </rdf:RDF>
  </metadata>
  <sodipodi:namedview
     pagecolor="#ffffff"
     bordercolor="#666666"
     borderopacity="1"
     objecttolerance="10"
     gridtolerance="10"
     guidetolerance="10"
     inkscape:pageopacity="0"
     inkscape:pageshadow="2"
     inkscape:window-width="1920"
     inkscape:window-height="1026"
     id="namedview30"
     showgrid="false"
     inkscape:snap-global="false"
     inkscape:zoom="1.7145927"
     inkscape:cx="334.59492"
     inkscape:cy="248.17266"
     inkscape:window-x="0"
     inkscape:window-y="26"
     inkscape:window-maximized="1"
     inkscape:current-layer="svg2" />
  <defs
     id="defs4">
    <linearGradient
       id="defitem0"
       gradientUnits="userSpaceOnUse"
       x1="406.804"
       y1="682.085"
       x2="48.0803"
       y2="-39.9316"
       spreadMethod="pad">
      <stop
         stop-color="#006c12"
         offset="0"
         stop-opacity="1"
         id="stop7" />
      <stop
         stop-color="#ffb96d"
         offset="0.435726"
         stop-opacity="1"
         id="stop9" />
      <stop
         stop-color="#1d40a6"
         offset="0.590985"
         stop-opacity="1"
         id="stop11" />
      <stop
         stop-color="#8d9f8c"
         offset="0.799666"
         stop-opacity="1"
         id="stop13" />
      <stop
         stop-color="#fdff73"
         offset="0.943239"
         stop-opacity="1"
         id="stop15" />
      <stop
         stop-color="#51d7ff"
         offset="0.979967"
         stop-opacity="1"
         id="stop17" />
      <stop
         stop-color="#00ff00"
         offset="1"
         stop-opacity="1"
         id="stop19" />
    </linearGradient>
    <linearGradient
       id="defitem1"
       gradientUnits="userSpaceOnUse"
       x1="-80.749"
       y1="344.407"
       x2="409.808"
       y2="415.98"
       spreadMethod="pad">
      <stop
         stop-color="#ffffff"
         offset="0"
         stop-opacity="1"
         id="stop22"
         style="stop-color:#ffffff;stop-opacity:1;" />
      <stop
         stop-color="#0c0623"
         offset="0.64774603"
         stop-opacity="1"
         id="stop24"
         style="stop-color:#ffffff;stop-opacity:1;" />
      <stop
         stop-color="#5dbbc1"
         offset="1"
         stop-opacity="1"
         id="stop26"
         style="stop-color:#acacac;stop-opacity:1;" />
    </linearGradient>
    <radialGradient
       inkscape:collect="always"
       xlink:href="#defitem1"
       id="radialGradient3797"
       cx="173.09395"
       cy="255.5155"
       fx="173.09395"
       fy="255.5155"
       r="174.65572"
       gradientTransform="matrix(1,0,0,1.4719084,0,-120.57991)"
       gradientUnits="userSpaceOnUse" />
    <radialGradient
       inkscape:collect="always"
       xlink:href="#defitem1"
       id="radialGradient3799"
       gradientUnits="userSpaceOnUse"
       gradientTransform="matrix(1,0,0,1.4719084,0,-120.57991)"
       cx="173.09395"
       cy="255.5155"
       fx="173.09395"
       fy="255.5155"
       r="174.65572" />
  </defs>
  <g
     id="layer1"
     transform="matrix(0.9998163,0,0,0.75106391,0.03179723,143.61825)"
     style="fill:url(#radialGradient3797);fill-opacity:1;stroke:#000000;stroke-opacity:1"
     inkscape:export-xdpi="495.79718"
     inkscape:export-ydpi="495.79718">
    <path
       id="path12166"
       stroke-miterlimit="2.49874"
       d="m 46.875,50.338421 c -8.4753,8.61177 -12.7188,13.7117 -12.7188,24.4375 0,10.7258 5.0904,18.3237 8.2188,21.75 3.1284,3.4263 -0.0625,6.562499 -0.0625,6.562499 -9.2361,11.0238 -13.4063,21.7308 -13.4063,27.0937 0,5.363 0,73.2503 0,73.2503 l -5.375,0 0,-2.938 -4.7812,0 0,18.469 8.0625,8.937 0,72.719 -10.125,0 0,-2.687 -5.9375,0 0,17.687 13.375,23.125 c 0,0 0,28.32758 0,38.75558 0,10.428 0.0025,20.27 -5.0625,27.719 -5.065,7.448 -5.6875,18.875 -5.6875,18.875 l 0,45.844 c -1.0208,0.445 -2.0689,0.755 -2.75,0.499 C 8.9396,469.805 5.0702295,470.14657 2.3314795,470.3566 -0.40730046,470.56757 0,472.25 0,472.25 l 0,38.781 345.313,-0.19413 0,-15.05587 0.0179,-0.74322 c 0,0 0.14583,-11.46324 0.14583,-19.80524 0,-8.343 -12.10168,-7.76354 -12.10168,-7.76354 l -30.219,0 c 0.865,-0.83 17.344,-16.998 17.344,-43.781 0,-27.5 -11.804,-40.335 -25.375,-53.907 -6.87,-6.87 -18.867,-17.492 -35,-28.031 C 244.782,331.727 222.258,322.795 215.094,315 l 0,-22.375 c 8.649,-1.451 12.125,-6.816 12.125,-13.281 0,-9.797 -12.438,-12.969 -12.438,-12.969 0,0 7.375,3.591 7.375,11.281 0,3.16 -2.413,7.594 -12,7.594 -9.585,0 -12.031,-4.434 -12.031,-7.594 0,-7.059 7.5,-11.156 7.5,-11.156 0,0 -12.531,3.027 -12.531,12.844 0,6.604 3.67,12.067 12.687,13.375 l 0,22.437 c -7.313,7.76 -29.661,16.636 -44.906,26.594 -16.133,10.539 -28.161,21.161 -35.031,28.031 -13.572,13.572 -25.344,26.407 -25.344,53.907 0,24.921 14.243,40.626 16.937,43.374 l -37.0308,0 0,-42.968 c 0,0 -0.6225,-11.427 -5.6875,-18.875 -5.0649,-7.449 -5.0625,-17.291 -5.0625,-27.719 0,-10.428 0,-38.75558 0,-38.75558 L 83,315.61942 l 0,-17.687 -5.9062,0 0,2.687 -10.125,0 0,-72.719 8.0312,-8.937 0,-18.469 -4.75,0 0,2.938 -5.375,0 c 0,0 0,-67.8873 0,-73.2503 0,-5.3628 -4.1701,-16.0699 -13.4062,-27.0937 0,0 -3.1909,-3.136199 -0.0626,-6.562499 3.1284,-3.4263 8.1876,-11.0242 8.1876,-21.75 0,-10.7258 -4.2435,-15.23469 -12.7188,-24.4375 z m -15.1563,118.718999 2.7188,0 0,34.125 -2.7188,0 z m 10.7188,0 7.6875,0 0,34.125 -7.6875,0 z m 15.7187,0 2.7188,0 0,34.125 -2.7188,0 z"
       transform="translate(-5e-5,0)"
       inkscape:connector-curvature="0"
       style="fill:url(#radialGradient3799);fill-opacity:1;fill-rule:evenodd;stroke:#000000;stroke-width:3.12343001;stroke-linecap:butt;stroke-linejoin:miter;stroke-miterlimit:2.49873996;stroke-opacity:1"
       sodipodi:nodetypes="csscsccccccccccccsccccccccccsccscsccscssscscccssccccsccccccccccccsccscccccccccccccccc" />
  </g>
</svg>
