<?xml version="1.0" encoding="UTF-8"?>
<svg width="756.2702" height="553.7702" xmlns="http://www.w3.org/2000/svg">
 <title>Scotch Tape</title>
 <metadata id="metadata2890">image/svg+xml</metadata>
 <g>
  <title>Layer 1</title>
  <g opacity="0.98" display="inline" id="layer1"/>
  <path opacity="0.588" fill="#ffffaa" stroke="#000000" stroke-width="0.346" stroke-miterlimit="4" d="m525.562744,507.21994l-396.111603,-370.074829l-0.257813,-0.294785l-0.181442,-0.324448l-0.105484,-0.343597l-0.029709,-0.3526l0.045898,-0.35112l0.121307,-0.339523l0.19632,-0.317398l0.271225,-0.284927l24.592514,0.326141l0.654816,-22.038147l24.592529,0.326111l0.654785,-22.038116l24.592545,0.326111l0.6548,-22.037994l24.592545,0.325974l0.654785,-22.03796l0.328857,-0.23119l0.361954,-0.162621l0.383331,-0.094471l0.393356,-0.026691l0.3918,0.041222l0.378754,0.108582l0.353958,0.175987l0.317978,0.243153l396.111588,370.074795l0.257813,0.294891l0.18158,0.32431l0.105469,0.343658l0.029602,0.35257l-0.045837,0.351227l-0.121338,0.339417l-0.19635,0.317383l-0.27124,0.284973l-24.592529,-0.326111l-0.654785,22.038147l-24.592407,-0.326202l-0.654907,22.038147l-24.592529,-0.326111l-0.654785,22.038177l-24.59259,-0.326233l-0.654724,22.038116l-0.328918,0.23111l-0.361816,0.16272l-0.383423,0.094513l-0.393372,0.02655l-0.391785,-0.041107l-0.378662,-0.108765l-0.354065,-0.175964l-0.317993,-0.243073z" id="path3310"/>
 </g>
</svg>